<?xml version="1.0" standalone="no"?>
<!DOCTYPE svg PUBLIC "-//W3C//DTD SVG 20010904//EN"
 "http://www.w3.org/TR/2001/REC-SVG-20010904/DTD/svg10.dtd">
<svg version="1.0" xmlns="http://www.w3.org/2000/svg"
 width="982.000000pt" height="982.000000pt" viewBox="0 0 982.000000 982.000000"
 preserveAspectRatio="xMidYMid meet">
<metadata>
Created by potrace 1.14, written by Peter Selinger 2001-2017
</metadata>
<g transform="translate(0.000000,982.000000) scale(0.100000,-0.100000)"
fill="#000000" stroke="none">
<path d="M4843 9808 c-4 -7 -9 -185 -11 -395 l-3 -382 -190 -353 c-243 -453
-405 -775 -395 -785 13 -13 1283 -10 1296 3 9 9 -53 135 -241 494 -313 599
-350 680 -357 778 l-5 72 40 0 c53 0 1188 58 1278 65 243 20 233 26 -155 110
-118 26 -221 50 -228 54 -18 10 81 39 344 101 221 51 290 73 264 83 -8 3 -247
22 -530 42 -579 41 -914 70 -970 85 -21 6 -43 17 -50 25 -15 18 -76 20 -87 3z"/>
<path d="M3720 7275 l0 -395 138 -174 137 -174 891 -1 891 -1 147 175 146 174
0 396 0 395 -180 0 -180 0 0 -175 0 -175 -160 0 -160 0 0 175 0 175 -170 0
-170 0 0 -175 0 -175 -155 0 -155 0 0 175 0 175 -179 0 -180 0 -7 -57 c-4 -31
-4 -110 -1 -175 l5 -118 -149 0 -149 0 0 175 0 175 -180 0 -180 0 0 -395z"/>
<path d="M4006 6343 c-8 -28 -48 -327 -140 -1053 -170 -1339 -190 -1510 -178
-1522 7 -7 72 -15 159 -20 164 -10 2248 -7 2257 3 8 7 -320 2578 -329 2587
-10 11 -556 20 -1177 21 -550 1 -587 0 -592 -16z m974 -680 c61 -32 87 -62
100 -119 5 -21 10 -180 10 -351 l0 -313 -202 0 -201 0 7 318 c3 174 11 333 16
353 19 67 114 138 186 139 17 0 55 -12 84 -27z"/>
<path d="M873 5868 c-4 -7 -10 -331 -13 -719 -4 -578 -7 -709 -19 -722 -9 -12
-29 -17 -67 -17 l-54 0 0 -215 0 -215 -170 0 -170 0 0 215 0 215 -185 0 -185
0 0 -295 0 -295 80 0 80 0 0 -1910 0 -1910 719 0 c396 0 726 3 735 6 15 6 16
183 16 1910 l0 1904 90 0 90 0 0 295 0 295 -190 0 -190 0 0 -215 0 -215 -170
0 -170 0 0 215 0 215 -49 0 c-88 0 -81 -39 -81 426 0 228 4 414 9 414 4 0 98
9 207 20 110 10 280 26 379 35 99 9 182 18 184 21 10 10 -22 27 -160 85 -79
33 -147 63 -152 68 -8 8 47 35 218 108 155 67 147 70 -342 137 -182 25 -334
46 -336 46 -3 0 -8 19 -12 43 -9 53 -20 67 -56 67 -15 0 -31 -6 -36 -12z m107
-2584 c19 -9 48 -27 64 -42 56 -53 58 -69 65 -420 l6 -322 -212 0 -213 0 0
333 0 333 63 61 c34 33 71 66 82 72 23 13 94 6 145 -15z"/>
<path d="M8845 5863 c-5 -10 -12 -337 -18 -728 -7 -506 -13 -712 -21 -717 -6
-4 -35 -8 -63 -8 l-53 0 0 -215 0 -215 -170 0 -170 0 0 215 0 215 -190 0 -190
0 0 -295 0 -295 80 0 80 0 0 -1904 c0 -1727 1 -1904 16 -1910 9 -3 344 -6 745
-6 l729 0 0 1910 0 1910 58 0 c31 0 74 5 95 11 l37 10 0 279 0 280 -98 0 c-55
0 -140 3 -190 6 l-92 7 0 -217 0 -216 -180 0 -180 0 -2 213 -3 212 -45 3 c-25
1 -55 5 -67 7 l-23 5 0 415 c0 280 3 415 10 415 54 0 777 73 783 79 9 9 -75
48 -225 107 -54 20 -98 40 -98 44 0 7 63 37 233 114 42 19 77 39 77 45 0 26 1
26 -544 101 -121 16 -223 33 -228 38 -5 5 -12 28 -16 53 -7 40 -10 44 -38 47
-23 2 -34 -2 -39 -15z m68 -2564 c23 -6 62 -34 102 -71 l65 -60 0 -334 0 -334
-214 0 -215 0 4 138 c3 75 7 221 9 325 7 245 22 281 138 332 40 17 61 18 111
4z"/>
<path d="M1890 1766 c0 -1590 1 -1754 16 -1760 23 -9 2227 -7 2240 2 8 5 13
141 18 437 4 237 11 461 17 499 24 173 189 364 395 457 245 111 534 85 760
-69 84 -56 183 -165 227 -249 50 -96 54 -139 63 -648 4 -293 10 -422 18 -427
13 -9 2181 -10 2214 -2 l22 6 0 1754 0 1754 -180 0 -180 0 0 -170 0 -170 -180
0 -180 0 0 170 0 170 -170 0 -170 0 0 -170 0 -170 -160 0 -160 0 0 170 0 170
-196 0 -196 0 7 -152 c4 -84 9 -161 11 -170 5 -17 -8 -18 -180 -18 l-186 0 0
170 0 170 -160 0 -160 0 0 -170 0 -170 -180 0 -180 0 0 170 0 170 -190 0 -190
0 0 -170 0 -170 -165 0 -165 0 0 170 0 170 -170 0 -170 0 0 -170 0 -170 -180
0 -180 0 0 170 0 170 -180 0 -180 0 0 -170 0 -170 -180 0 -180 0 0 170 0 170
-180 0 -180 0 0 -170 0 -170 -160 0 -160 0 0 170 0 170 -190 0 -190 0 0 -1754z
m974 873 c2 -2 7 -77 11 -166 l7 -163 -162 0 -162 0 3 160 c3 129 7 163 19
171 14 10 275 8 284 -2z m1106 -159 l0 -170 -161 0 -160 0 3 160 c2 130 6 163
18 170 8 5 79 10 158 10 l142 0 0 -170z m1060 0 l0 -170 -145 0 -145 0 0 170
0 170 145 0 145 0 0 -170z m1028 164 l52 -7 0 -158 0 -159 -87 0 c-49 0 -118
-3 -155 -7 l-68 -6 0 172 0 171 103 0 c56 0 126 -3 155 -6z m1115 -4 c3 -3 8
-78 11 -167 l8 -163 -152 0 -152 0 3 160 c3 129 7 163 19 171 14 10 254 8 263
-1z"/>
</g>
</svg>
