<svg version="1.2" baseProfile="tiny-ps" xmlns="http://www.w3.org/2000/svg" viewBox="0 0 752 752" width="752" height="752">
	<title>farm-svg</title>
	<style>
		tspan { white-space:pre }
		.s0 { fill: #000000 } 
	</style>
	<path id="Layer" fill-rule="evenodd" class="s0" d="m659.35 304.22c-5.74 0-10.67-0.31-14.47-0.66v91.54c1.95-2.7 4.06-5.32 6.48-7.74c31.3-31.3 88.91-22.15 91.35-21.72c3.96 0.66 7.05 3.75 7.7 7.7c0.42 2.44 9.57 60.04-21.72 91.35c-8.75 8.77-19.61 14.25-30.72 17.74c6.99 7.44 11.35 17.38 11.35 28.37c0 22.93-18.65 41.59-41.59 41.59c-8.43 0-16.27-2.57-22.84-6.91v33.37c1.95-2.7 4.06-5.32 6.48-7.74c31.3-31.29 88.92-22.12 91.35-21.72c3.96 0.66 7.05 3.75 7.7 7.7c0.42 2.44 9.57 60.06-21.72 91.35c-19.47 19.48-49.14 23.28-69.36 23.28c-5.74 0-10.68-0.31-14.44-0.65v60.09l94.29 0c5.17 0 9.37 4.19 9.37 9.37c0 5.18-4.2 9.37-9.37 9.37l-729.85 0c-5.17 0-9.37-4.19-9.37-9.37c0-5.18 4.2-9.37 9.37-9.37h98.69l-0.06-161.94c-3.79 0.36-8.82 0.67-14.67 0.67c-20.22 0-49.87-3.8-69.36-23.28c-31.29-31.3-22.12-88.91-21.72-91.35c0.66-3.96 3.75-7.05 7.7-7.7c2.43-0.43 60.04-9.57 91.35 21.72c2.52 2.52 4.68 5.25 6.71 8.08v-35.41c-6.98 5.32-15.59 8.59-25.02 8.59c-22.93 0-41.59-18.65-41.59-41.58c0-11.23 4.52-21.39 11.77-28.88c-10.56-3.52-20.82-8.89-29.19-17.24c-31.29-31.3-22.12-88.91-21.72-91.35c0.66-3.96 3.75-7.05 7.7-7.7c2.43-0.42 60.06-9.58 91.35 21.72c2.52 2.52 4.68 5.25 6.71 8.08v-58.79c-6.98 5.32-15.59 8.59-25.02 8.59c-22.93 0-41.59-18.65-41.59-41.58c0-22.92 18.65-41.58 41.59-41.58c9.43 0 18.04 3.28 25.02 8.59v-9.79c-11.64-9.33-45.31-39.53-45.31-76.95c0-44.25 47.22-78.52 49.23-79.95c3.26-2.33 7.63-2.33 10.9 0c2.01 1.43 49.23 35.69 49.23 79.95c0 37.43-33.66 67.61-45.31 76.95v52.31c1.95-2.71 4.06-5.32 6.48-7.75c31.3-31.29 88.91-22.13 91.35-21.72c3.96 0.66 7.05 3.75 7.7 7.7c0.42 2.44 9.57 60.04-21.72 91.35c-19.47 19.48-49.14 23.28-69.36 23.28c-5.74 0-10.68-0.31-14.44-0.65v91.55c1.95-2.71 4.06-5.32 6.48-7.75c31.29-31.3 88.91-22.15 91.35-21.72c3.96 0.66 7.05 3.75 7.7 7.7c0.42 2.44 9.57 60.04-21.72 91.35c-8.77 8.77-19.62 14.25-30.73 17.74c6.99 7.44 11.35 17.38 11.35 28.37c0 22.93-18.65 41.59-41.58 41.59c-8.44 0-16.28-2.57-22.85-6.91v33.37c1.95-2.71 4.06-5.32 6.48-7.75c31.3-31.29 88.91-22.13 91.35-21.72c3.96 0.66 7.05 3.75 7.7 7.7c0.42 2.44 9.57 60.06-21.72 91.35c-19.47 19.48-49.14 23.28-69.36 23.28c-5.74 0-10.68-0.31-14.44-0.65v60.09h240.32l-0.05-161.94c-3.79 0.36-8.81 0.67-14.66 0.67c-20.22 0-49.87-3.8-69.36-23.28c-31.3-31.3-22.14-88.91-21.74-91.35c0.66-3.96 3.75-7.05 7.7-7.7c2.44-0.43 60.04-9.57 91.35 21.72c2.52 2.52 4.68 5.25 6.71 8.08v-35.41c-6.98 5.32-15.59 8.59-25.02 8.59c-22.93 0-41.59-18.65-41.59-41.58c0-11.23 4.52-21.39 11.77-28.88c-10.57-3.52-20.82-8.89-29.19-17.24c-31.3-31.3-22.14-88.91-21.74-91.35c0.66-3.96 3.75-7.05 7.7-7.7c2.43-0.42 60.04-9.58 91.35 21.72c2.52 2.52 4.68 5.25 6.71 8.08v-58.79c-6.98 5.32-15.59 8.59-25.02 8.59c-22.93 0-41.59-18.65-41.59-41.58c0-22.92 18.65-41.58 41.59-41.58c9.43 0 18.04 3.28 25.02 8.59v-9.79c-11.64-9.33-45.3-39.53-45.3-76.95c0-44.25 47.22-78.52 49.23-79.95c3.26-2.33 7.63-2.33 10.9 0c2.01 1.43 49.23 35.69 49.23 79.95c0 37.43-33.66 67.61-45.31 76.95v52.31c1.95-2.71 4.06-5.32 6.48-7.75c31.3-31.29 88.91-22.13 91.35-21.72c3.96 0.66 7.05 3.75 7.7 7.7c0.42 2.44 9.57 60.04-21.72 91.35c-19.47 19.48-49.14 23.28-69.36 23.28c-5.74 0-10.68-0.31-14.44-0.65v91.55c1.95-2.71 4.06-5.32 6.48-7.75c31.29-31.3 88.91-22.15 91.35-21.72c3.96 0.66 7.05 3.75 7.7 7.7c0.42 2.44 9.57 60.04-21.72 91.35c-8.75 8.77-19.61 14.25-30.72 17.74c6.99 7.44 11.35 17.38 11.35 28.37c0 22.93-18.65 41.59-41.59 41.59c-8.44 0-16.28-2.57-22.85-6.91v33.37c1.95-2.71 4.06-5.32 6.48-7.75c31.3-31.29 88.91-22.13 91.35-21.72c3.96 0.66 7.05 3.75 7.7 7.7c0.42 2.44 9.57 60.06-21.72 91.35c-19.47 19.48-49.14 23.28-69.36 23.28c-5.74 0-10.68-0.31-14.44-0.65v60.09h240.34l-0.03-161.95c-3.79 0.36-8.82 0.67-14.67 0.67c-20.22 0-49.87-3.8-69.36-23.28c-31.29-31.3-22.12-88.91-21.72-91.35c0.66-3.96 3.75-7.05 7.7-7.7c2.44-0.42 60.04-9.58 91.35 21.72c2.52 2.52 4.68 5.25 6.71 8.08v-35.41c-6.99 5.32-15.59 8.59-25.03 8.59c-22.93 0-41.59-18.65-41.59-41.58c0-11.23 4.52-21.39 11.77-28.88c-10.57-3.52-20.82-8.89-29.19-17.24c-31.29-31.3-22.12-88.91-21.72-91.35c0.66-3.96 3.75-7.05 7.7-7.7c2.45-0.42 60.04-9.58 91.35 21.72c2.52 2.52 4.68 5.25 6.71 8.08v-58.79c-6.99 5.32-15.59 8.59-25.03 8.59c-22.93 0-41.59-18.65-41.59-41.58c0-22.92 18.65-41.58 41.59-41.58c9.43 0 18.04 3.28 25.03 8.59v-9.79c-11.64-9.33-45.31-39.53-45.31-76.95c0-44.25 47.22-78.52 49.23-79.95c3.26-2.33 7.63-2.33 10.9 0c2.01 1.43 49.23 35.69 49.23 79.95c0 37.42-33.65 67.61-45.3 76.95v52.29c1.95-2.7 4.06-5.32 6.48-7.74c31.3-31.29 88.92-22.13 91.35-21.72c3.96 0.66 7.05 3.75 7.7 7.7c0.42 2.44 9.57 60.04-21.72 91.35c-19.47 19.48-49.14 23.28-69.36 23.28l-0.01 0zm5.3-87.36c-18.98 18.98-18.48 53.41-17.26 68.1c14.67 1.21 49.12 1.69 68.09-17.28c18.97-18.99 18.47-53.41 17.26-68.09c-14.67-1.21-49.1-1.7-68.09 17.26v0zm-40.65-15.03c0-12.6-10.25-22.84-22.85-22.84c-12.6 0-22.85 10.25-22.85 22.84c0 12.6 10.25 22.84 22.85 22.84c12.6 0 22.85-10.25 22.85-22.84zm-218.41 382.53c-18.97 18.98-18.48 53.4-17.26 68.1c14.69 1.21 49.11 1.69 68.09-17.28c19.06-19.06 18.52-53.43 17.29-68.09c-14.69-1.21-49.13-1.71-68.11 17.26l0 0zm0-367.5c-18.97 18.98-18.48 53.41-17.26 68.1c14.69 1.21 49.11 1.69 68.09-17.28c18.97-18.99 18.47-53.41 17.26-68.09c-14.66-1.21-49.11-1.7-68.09 17.26v0zm-40.66-15.03c0-12.6-10.25-22.84-22.85-22.84c-12.6 0-22.85 10.25-22.85 22.84c0 12.6 10.25 22.84 22.85 22.84c12.6 0 22.85-10.25 22.85-22.84zm66.61 308.98c0-12.6-10.25-22.84-22.85-22.84c-12.6 0-22.85 10.25-22.85 22.84c0 12.59 10.25 22.85 22.85 22.85c12.6 0 22.85-10.26 22.85-22.85zm-25.96-110.18c-19.06 19.06-18.52 53.41-17.29 68.09c14.68 1.21 49.13 1.71 68.11-17.26c18.98-19 18.47-53.41 17.26-68.1c-14.7-1.21-49.11-1.69-68.09 17.28l0 0zm-65.04-318.5c0 26.84 24.47 50.67 35.79 60.25c0.05 0 0.09-0.03 0.15-0.03c0.05 0 0.09 0.03 0.14 0.03c11.3-9.6 35.79-33.51 35.79-60.25c0-26.95-24.67-50.86-35.92-60.36c-11.24 9.51-35.95 33.52-35.95 60.36h0zm-61.49 199.41c-1.21 14.69-1.71 49.11 17.28 68.1c18.97 18.98 53.38 18.47 68.09 17.26c1.21-14.69 1.7-49.12-17.28-68.09c-18.97-18.99-53.41-18.5-68.09-17.28v0zm85.87 127.46c0-12.6-10.25-22.84-22.85-22.84c-12.6 0-22.85 10.25-22.85 22.84c0 12.6 10.25 22.84 22.85 22.84c12.6 0 22.85-10.25 22.85-22.84zm-0.5 141.66c1.21-14.69 1.71-49.11-17.28-68.1c-18.98-18.98-53.39-18.47-68.09-17.26c-1.21 14.69-1.7 49.12 17.28 68.09c18.97 18.99 53.4 18.47 68.09 17.28v0zm-217.91 33.74c-18.97 18.98-18.48 53.4-17.26 68.1c14.67 1.21 49.11 1.69 68.09-17.28c19.06-19.06 18.52-53.43 17.29-68.09c-14.71-1.21-49.13-1.71-68.11 17.26l0 0zm0-367.5c-18.97 18.98-18.48 53.41-17.26 68.1c14.67 1.21 49.11 1.69 68.09-17.28c18.98-18.99 18.47-53.41 17.26-68.09c-14.66-1.21-49.11-1.7-68.09 17.26v0zm-40.66-15.03c0-12.6-10.24-22.84-22.84-22.84c-12.6 0-22.85 10.25-22.85 22.84c0 12.6 10.25 22.84 22.85 22.84c12.6 0 22.84-10.25 22.84-22.84zm66.62 308.98c0-12.6-10.24-22.84-22.84-22.84c-12.6 0-22.85 10.25-22.85 22.84c0 12.59 10.25 22.85 22.85 22.85c12.6 0 22.84-10.26 22.84-22.85zm-25.97-110.18c-19.06 19.06-18.51 53.41-17.29 68.09c14.69 1.21 49.13 1.71 68.11-17.26c18.98-19 18.47-53.41 17.26-68.1c-14.69-1.21-49.12-1.69-68.09 17.28l0 0zm-65.04-318.5c0 26.85 24.47 50.67 35.79 60.25c0.05 0 0.09-0.03 0.15-0.03c0.05 0 0.09 0.03 0.14 0.03c11.3-9.6 35.79-33.51 35.79-60.25c0-26.95-24.68-50.86-35.93-60.36c-11.24 9.51-35.95 33.52-35.95 60.36h0zm-61.49 199.41c-1.21 14.69-1.7 49.11 17.26 68.1c18.97 18.97 53.37 18.47 68.09 17.26c1.22-14.69 1.72-49.12-17.26-68.09c-18.98-18.99-53.4-18.5-68.09-17.28v0zm85.87 127.46c0-12.6-10.24-22.84-22.84-22.84c-12.6 0-22.85 10.25-22.85 22.84c0 12.6 10.25 22.84 22.85 22.84c12.6 0 22.84-10.25 22.84-22.84zm-0.49 141.66c1.21-14.69 1.7-49.11-17.26-68.1c-18.97-18.98-53.39-18.47-68.09-17.26c-1.22 14.69-1.72 49.12 17.26 68.09c18.97 18.99 53.39 18.47 68.09 17.28v0zm559.28 33.74c-18.98 18.98-18.48 53.4-17.26 68.1c14.67 1.21 49.12 1.69 68.09-17.28c19.06-19.06 18.52-53.43 17.29-68.09c-14.71-1.21-49.13-1.71-68.11 17.26l0 0zm-65.04-502.26c0 26.85 24.48 50.67 35.78 60.25c0.06 0 0.11-0.03 0.16-0.03c0.05 0 0.09 0.03 0.13 0.03c11.3-9.6 35.79-33.51 35.79-60.25c0-26.83-24.68-50.82-35.93-60.35c-11.24 9.53-35.94 33.52-35.94 60.35h0zm-61.49 199.39c-1.21 14.67-1.72 49.12 17.26 68.11c18.97 18.97 53.38 18.47 68.09 17.26c1.22-14.69 1.72-49.12-17.26-68.09c-19.06-19.06-53.4-18.52-68.09-17.29v0zm85.88 127.47c0-12.6-10.25-22.84-22.85-22.84c-12.6 0-22.85 10.25-22.85 22.84c0 12.6 10.25 22.84 22.85 22.84c12.6 0 22.85-10.25 22.85-22.84zm-0.51 141.66c1.21-14.69 1.71-49.11-17.26-68.1c-19.06-19.06-53.43-18.53-68.09-17.29c-1.22 14.69-1.72 49.13 17.26 68.11c18.97 18.99 53.39 18.47 68.09 17.28v0zm67.12-39.83c0-12.6-10.26-22.84-22.85-22.84c-12.6 0-22.84 10.25-22.84 22.84c0 12.59 10.24 22.85 22.84 22.85c12.6 0 22.85-10.26 22.85-22.85zm-25.97-110.18c-19.06 19.06-18.52 53.41-17.29 68.09c14.69 1.21 49.13 1.71 68.11-17.26c18.98-19 18.47-53.41 17.26-68.1c-14.69-1.21-49.11-1.69-68.09 17.28l0 0z" />
</svg>